<svg width="8" height="15" viewBox="0 0 8 15" fill="none" xmlns="http://www.w3.org/2000/svg">
<path d="M7.70508 7.77734L1.68945 13.793C1.49805 13.9844 1.26562 14.0801 0.992188 14.0801C0.71875 14.0801 0.486328 13.9844 0.294922 13.793C0.103516 13.6016 0.0078125 13.3714 0.0078125 13.1025C0.0078125 12.8337 0.103516 12.6035 0.294922 12.4121L5.62695 7.08008L0.294922 1.74805C0.103516 1.55664 0.0078125 1.3265 0.0078125 1.05762C0.0078125 0.788737 0.103516 0.558594 0.294922 0.367188C0.486328 0.175781 0.71875 0.0800781 0.992188 0.0800781C1.26562 0.0800781 1.49805 0.175781 1.68945 0.367188L7.70508 6.38281C7.79622 6.48307 7.86686 6.59245 7.91699 6.71094C7.96712 6.82943 7.99219 6.95247 7.99219 7.08008C7.99219 7.20768 7.96712 7.33073 7.91699 7.44922C7.86686 7.56771 7.79622 7.67708 7.70508 7.77734Z" fill="white"/>
</svg>
